<svg xmlns="http://www.w3.org/2000/svg" xmlns:xlink="http://www.w3.org/1999/xlink" width="1280" zoomAndPan="magnify" viewBox="0 0 960 239.999995" height="320" preserveAspectRatio="xMidYMid meet" version="1.0"><defs><g/></defs><g fill="#ffffff" fill-opacity="1"><g transform="translate(190.687967, 185.999988)"><g><path d="M 15.59375 -107 L 17 -118.796875 L 17.203125 -125 C 17.203125 -126.726562 17.535156 -128.0625 18.203125 -129 L 20.203125 -131.796875 C 23.796875 -134.597656 26.125 -136.195312 27.1875 -136.59375 C 28.257812 -137 29.828125 -136.96875 31.890625 -136.5 C 33.960938 -136.03125 35.195312 -135.597656 35.59375 -135.203125 L 37.796875 -133.40625 C 38.992188 -132.738281 39.59375 -131.671875 39.59375 -130.203125 C 40.257812 -129.398438 40.460938 -128.800781 40.203125 -128.40625 C 39.398438 -127.46875 38.066406 -119.597656 36.203125 -104.796875 L 34.59375 -77.59375 L 33.59375 -72.203125 C 33.59375 -70.460938 33.660156 -69.460938 33.796875 -69.203125 L 33.796875 -65.59375 C 33.535156 -62.925781 33.269531 -61.257812 33 -60.59375 C 33 -59.925781 32.863281 -59.195312 32.59375 -58.40625 C 32.863281 -58.132812 33 -57.097656 33 -55.296875 C 33 -53.492188 32.800781 -52.394531 32.40625 -52 C 32.132812 -49.863281 32 -47.828125 32 -45.890625 C 32 -43.960938 32.164062 -41.960938 32.5 -39.890625 C 32.832031 -37.828125 32.929688 -35.796875 32.796875 -33.796875 L 33.59375 -26.203125 L 33.59375 -23.203125 C 33.863281 -20.796875 34 -18.863281 34 -17.40625 L 35 -7 L 35.796875 -1.59375 C 36.203125 0.664062 36.035156 2.863281 35.296875 5 C 34.566406 7.132812 33.46875 8.46875 32 9 C 27.863281 10.726562 23.332031 9.59375 18.40625 5.59375 L 16.796875 5.59375 C 15.867188 4.53125 15.132812 3.066406 14.59375 1.203125 C 13.53125 0.671875 13.066406 -0.257812 13.203125 -1.59375 C 13.335938 -2.925781 13.070312 -4.125 12.40625 -5.1875 C 11.738281 -6.257812 11.40625 -7.195312 11.40625 -8 C 11.40625 -9.726562 11.269531 -11.257812 11 -12.59375 L 11.203125 -14.203125 C 10.796875 -14.597656 10.59375 -15.195312 10.59375 -16 L 10.203125 -19.59375 L 10.203125 -21.203125 C 10.203125 -22.265625 10.164062 -22.992188 10.09375 -23.390625 C 10.03125 -23.796875 10.195312 -24.46875 10.59375 -25.40625 C 10.195312 -25.9375 10.132812 -27.867188 10.40625 -31.203125 C 11.195312 -41.460938 11.59375 -48.53125 11.59375 -52.40625 L 11.796875 -57.203125 L 11.796875 -63 C 11.929688 -66.195312 12.03125 -70.257812 12.09375 -75.1875 C 12.164062 -80.125 12.398438 -82.796875 12.796875 -83.203125 L 12.59375 -85 C 12.59375 -88.195312 13.09375 -92.5625 14.09375 -98.09375 C 15.09375 -103.632812 15.59375 -106.601562 15.59375 -107 Z M 15.59375 -107 "/></g></g></g><g fill="#ffffff" fill-opacity="1"><g transform="translate(223.086501, 185.999988)"><g><path d="M 20 -125.40625 C 28.9375 -125.40625 35.203125 -123.601562 38.796875 -120 C 38.796875 -117.726562 37.265625 -113.128906 34.203125 -106.203125 C 33.671875 -103.929688 32.800781 -102.128906 31.59375 -100.796875 L 29 -98.203125 C 28.332031 -97.796875 27.664062 -97.59375 27 -97.59375 C 22.195312 -96.394531 18.460938 -97.332031 15.796875 -100.40625 C 15.265625 -101.195312 14.628906 -101.789062 13.890625 -102.1875 C 13.160156 -102.59375 12.597656 -103.796875 12.203125 -105.796875 C 11.003906 -107.535156 10.40625 -108.867188 10.40625 -109.796875 C 10.132812 -118.066406 13.132812 -123.269531 19.40625 -125.40625 Z M 18.40625 -78.203125 C 19.738281 -78.867188 22.867188 -78.203125 27.796875 -76.203125 C 28.328125 -75.671875 29.128906 -75.132812 30.203125 -74.59375 L 33.40625 -72 C 33.9375 -71.46875 34.203125 -70.601562 34.203125 -69.40625 L 34.203125 -51.796875 C 34.203125 -49.128906 34.066406 -46.726562 33.796875 -44.59375 L 33.796875 -43.40625 C 33.398438 -37.9375 33.734375 -25.601562 34.796875 -6.40625 C 35.203125 -2.664062 34.335938 -0.394531 32.203125 0.40625 C 29.929688 0.40625 28.460938 0.0703125 27.796875 -0.59375 C 27.265625 -0.863281 26.800781 -1 26.40625 -1 L 25 -1 L 23.796875 -0.59375 C 23.398438 -0.59375 22.664062 -0.894531 21.59375 -1.5 C 20.53125 -2.101562 19.832031 -2.738281 19.5 -3.40625 C 19.164062 -4.070312 18.597656 -4.46875 17.796875 -4.59375 C 16.328125 -5.132812 15.53125 -6.132812 15.40625 -7.59375 C 13.53125 -11.195312 12.5625 -13.332031 12.5 -14 C 12.4375 -14.664062 12.203125 -15.398438 11.796875 -16.203125 L 10.796875 -33.59375 C 10.796875 -35.59375 10.929688 -37.128906 11.203125 -38.203125 L 11.203125 -43 C 11.335938 -44.46875 11.46875 -47.164062 11.59375 -51.09375 C 11.726562 -55.03125 11.929688 -58.195312 12.203125 -60.59375 C 11.929688 -64.0625 11.796875 -66.394531 11.796875 -67.59375 C 11.796875 -68.800781 11.863281 -69.671875 12 -70.203125 C 10.53125 -71.671875 10.597656 -73.671875 12.203125 -76.203125 C 13.929688 -77.535156 15.597656 -78.203125 17.203125 -78.203125 Z M 18.40625 -78.203125 "/></g></g></g><g fill="#ffffff" fill-opacity="1"><g transform="translate(252.885144, 185.999988)"><g><path d="M 54.203125 -62.796875 L 53.59375 -63 C 53.863281 -62.863281 54.066406 -62.796875 54.203125 -62.796875 Z M 29 -11.59375 L 29 -9.796875 C 32.0625 -5.660156 33.660156 -3.59375 33.796875 -3.59375 C 34.460938 -3.59375 35.992188 -3.992188 38.390625 -4.796875 C 38.523438 -4.796875 39.222656 -5.425781 40.484375 -6.6875 C 41.753906 -7.957031 42.660156 -8.796875 43.203125 -9.203125 C 44.796875 -10.128906 45.859375 -10.726562 46.390625 -11 C 46.390625 -12.0625 46.859375 -13.160156 47.796875 -14.296875 C 48.734375 -15.429688 49.566406 -16.566406 50.296875 -17.703125 C 51.023438 -18.835938 51.523438 -19.671875 51.796875 -20.203125 C 52.597656 -21.265625 52.863281 -21.796875 52.59375 -21.796875 C 52.863281 -22.328125 53.265625 -23.460938 53.796875 -25.203125 L 55.796875 -29.796875 L 58 -39.796875 C 58.257812 -40.734375 57.925781 -43.664062 57 -48.59375 L 57 -50.40625 C 56.726562 -50.800781 56.59375 -51.195312 56.59375 -51.59375 L 56.59375 -51.796875 L 56.390625 -53.796875 C 56.390625 -54.460938 56.191406 -55.597656 55.796875 -57.203125 C 55.523438 -58.398438 54.722656 -60.332031 53.390625 -63 L 51.203125 -63 C 48.796875 -61.800781 46.992188 -60.535156 45.796875 -59.203125 C 44.328125 -57.335938 42.457031 -54.003906 40.1875 -49.203125 C 37.925781 -44.398438 36.394531 -40.066406 35.59375 -36.203125 L 34.390625 -31.40625 C 32.660156 -27.800781 31.53125 -23.664062 31 -19 L 30 -16.203125 Z M 74.59375 -69 C 77.257812 -63.269531 78.59375 -58.46875 78.59375 -54.59375 C 78.59375 -46.863281 77.925781 -41 76.59375 -37 C 76.59375 -35.53125 76.460938 -34.394531 76.203125 -33.59375 C 74.992188 -24.800781 73.457031 -18.269531 71.59375 -14 C 70.925781 -13.0625 70.191406 -11.59375 69.390625 -9.59375 C 68.597656 -7.332031 66.597656 -4.734375 63.390625 -1.796875 C 63.390625 -1.398438 62.390625 -0.171875 60.390625 1.890625 C 58.390625 3.960938 55.257812 5.664062 51 7 C 46.0625 8.601562 42.859375 9.40625 41.390625 9.40625 C 33.796875 10.601562 28.265625 9.46875 24.796875 6 L 24.59375 6.203125 C 21.925781 10.867188 18.726562 12.269531 15 10.40625 C 12.726562 9.195312 11.425781 8.394531 11.09375 8 C 10.757812 7.601562 10.523438 6.738281 10.390625 5.40625 C 9.460938 3 9.128906 0.195312 9.390625 -3 L 10.390625 -9.59375 C 9.992188 -11.863281 9.929688 -13.863281 10.203125 -15.59375 L 10.203125 -17 C 10.460938 -19.664062 10.660156 -24.765625 10.796875 -32.296875 C 10.929688 -39.828125 11.164062 -44.425781 11.5 -46.09375 C 11.832031 -47.757812 12 -49.328125 12 -50.796875 C 13.59375 -69.066406 14.488281 -78.832031 14.6875 -80.09375 C 14.894531 -81.363281 15 -85.664062 15 -93 L 15 -104 C 15 -106.132812 14.960938 -107.734375 14.890625 -108.796875 C 14.828125 -109.867188 15.0625 -110.601562 15.59375 -111 C 14.53125 -114.0625 14.332031 -117.53125 15 -121.40625 L 15 -123.796875 C 14.726562 -126.328125 15.257812 -128.726562 16.59375 -131 C 17.53125 -132.195312 19.394531 -133.328125 22.1875 -134.390625 C 24.988281 -135.460938 27.328125 -136.066406 29.203125 -136.203125 L 30.203125 -136.203125 C 31.929688 -136.203125 33.460938 -135.734375 34.796875 -134.796875 C 36.398438 -134.128906 37.203125 -132.53125 37.203125 -130 C 37.460938 -129.195312 37.460938 -128.332031 37.203125 -127.40625 C 37.328125 -126.46875 36.691406 -117.03125 35.296875 -99.09375 C 33.898438 -81.164062 33.203125 -71.367188 33.203125 -69.703125 C 33.203125 -68.035156 33.164062 -66.96875 33.09375 -66.5 C 33.03125 -66.03125 33 -65.726562 33 -65.59375 C 33.664062 -65.863281 34.0625 -66.332031 34.1875 -67 C 34.320312 -67.664062 34.59375 -68.132812 35 -68.40625 C 37.257812 -70 38.390625 -71.128906 38.390625 -71.796875 C 38.390625 -71.929688 38.722656 -72.265625 39.390625 -72.796875 C 40.054688 -73.328125 40.457031 -73.59375 40.59375 -73.59375 C 40.863281 -74 41.332031 -74.269531 42 -74.40625 L 45.59375 -76.203125 C 45.726562 -77.003906 47.660156 -77.367188 51.390625 -77.296875 C 55.128906 -77.234375 57.398438 -76.9375 58.203125 -76.40625 C 59.535156 -75.738281 60.429688 -75.300781 60.890625 -75.09375 C 61.359375 -74.894531 61.828125 -74.757812 62.296875 -74.6875 C 62.765625 -74.625 64.597656 -74.0625 67.796875 -73 C 69.265625 -73 70 -72.800781 70 -72.40625 C 70.53125 -72.132812 70.929688 -72 71.203125 -72 C 73.460938 -70.664062 74.59375 -69.664062 74.59375 -69 Z M 74.59375 -69 "/></g></g></g><g fill="#ffffff" fill-opacity="1"><g transform="translate(323.682199, 185.999988)"><g><path d="M 19 -82.59375 L 19.40625 -82.59375 C 21.132812 -83.132812 23.929688 -82.9375 27.796875 -82 C 29.128906 -81.601562 29.929688 -77.800781 30.203125 -70.59375 C 30.734375 -65.132812 31 -61.367188 31 -59.296875 C 31 -57.234375 31.066406 -56 31.203125 -55.59375 L 31.203125 -42.203125 L 32.203125 -42 C 32.203125 -42.132812 32.332031 -42.9375 32.59375 -44.40625 C 33.257812 -48.132812 33.992188 -51 34.796875 -53 C 35.328125 -53.53125 35.625 -54.195312 35.6875 -55 C 35.757812 -55.800781 36.128906 -56.664062 36.796875 -57.59375 C 37.597656 -61.332031 39.597656 -66.203125 42.796875 -72.203125 C 43.867188 -74.734375 44.90625 -76.628906 45.90625 -77.890625 C 46.90625 -79.160156 48.4375 -79.59375 50.5 -79.1875 C 52.5625 -78.789062 54.257812 -78.0625 55.59375 -77 C 56.664062 -76.863281 57.9375 -76.664062 59.40625 -76.40625 L 65.203125 -75.203125 C 65.734375 -75.066406 66.460938 -74.628906 67.390625 -73.890625 C 68.328125 -73.160156 68.726562 -72.257812 68.59375 -71.1875 C 68.46875 -70.125 68.335938 -66.992188 68.203125 -61.796875 L 68.203125 -58.59375 L 67.40625 -50.796875 C 67.40625 -48.660156 67.535156 -47.394531 67.796875 -47 L 68.59375 -46.40625 L 70.203125 -55.59375 C 70.203125 -56.53125 70.601562 -57.398438 71.40625 -58.203125 L 73.796875 -64 C 73.796875 -64.394531 74.195312 -65.257812 75 -66.59375 C 75.269531 -67.53125 75.90625 -68.863281 76.90625 -70.59375 C 77.90625 -72.332031 79.203125 -74 80.796875 -75.59375 C 80.796875 -76.664062 82 -77.398438 84.40625 -77.796875 C 86.269531 -79.796875 89.332031 -79.863281 93.59375 -78 C 94.394531 -78 95.128906 -77.863281 95.796875 -77.59375 C 95.796875 -77.332031 96.296875 -77.132812 97.296875 -77 C 98.296875 -76.863281 99.53125 -76 101 -74.40625 L 101 -72.203125 C 101 -70.867188 101.066406 -69.867188 101.203125 -69.203125 C 101.066406 -68.265625 101.132812 -67.0625 101.40625 -65.59375 L 101.40625 -63.203125 C 101.53125 -62.128906 101.863281 -58.796875 102.40625 -53.203125 L 102.40625 -51 C 102.800781 -50.195312 102.960938 -49.363281 102.890625 -48.5 C 102.828125 -47.632812 102.796875 -46.734375 102.796875 -45.796875 C 103.203125 -45.398438 103.535156 -44.300781 103.796875 -42.5 C 104.066406 -40.695312 103.9375 -38.929688 103.40625 -37.203125 L 103.796875 -35.40625 L 103.796875 -29.796875 C 104.460938 -29.265625 104.796875 -28.46875 104.796875 -27.40625 L 105.40625 -24 C 105.40625 -21.601562 105.738281 -19.203125 106.40625 -16.796875 L 106.40625 -14.59375 L 107.40625 -9.40625 L 107.40625 -8.203125 L 107.203125 -6.203125 C 107.203125 -4.734375 106.398438 -3.664062 104.796875 -3 C 104.535156 -2.863281 104.171875 -2.660156 103.703125 -2.390625 C 103.234375 -2.128906 102.46875 -2 101.40625 -2 L 97.203125 -3.40625 L 95.203125 -4.796875 C 94.128906 -4.535156 92.726562 -5.003906 91 -6.203125 C 91 -7.398438 90.53125 -8.46875 89.59375 -9.40625 C 88 -9.9375 87.398438 -11 87.796875 -12.59375 C 87.929688 -12.726562 87.597656 -13.460938 86.796875 -14.796875 C 87.066406 -15.066406 86.867188 -16.535156 86.203125 -19.203125 C 86.203125 -20.398438 86.097656 -21.566406 85.890625 -22.703125 C 85.691406 -23.835938 85.5625 -25.003906 85.5 -26.203125 C 85.4375 -27.398438 85.203125 -28.46875 84.796875 -29.40625 C 84.929688 -29.40625 85 -29.867188 85 -30.796875 C 85 -31.734375 84.863281 -32.601562 84.59375 -33.40625 L 84.59375 -38 L 83.59375 -46 L 80.59375 -36.796875 C 78.59375 -31.597656 77.59375 -28.800781 77.59375 -28.40625 L 71.203125 -8.40625 C 70.796875 -7.601562 70.023438 -6.703125 68.890625 -5.703125 C 67.765625 -4.703125 66.800781 -4.203125 66 -4.203125 C 65.726562 -4.597656 65.023438 -4.796875 63.890625 -4.796875 C 62.765625 -4.796875 61.398438 -4.460938 59.796875 -3.796875 C 55.265625 -3.265625 52.664062 -4.664062 52 -8 L 51.59375 -12.59375 L 51.796875 -17.203125 C 51.535156 -17.597656 51.40625 -18.53125 51.40625 -20 L 51.203125 -22.796875 L 51.203125 -31.40625 L 50.796875 -41.59375 L 50.796875 -51.40625 C 46.929688 -40.863281 44.53125 -33.992188 43.59375 -30.796875 L 36.203125 -7 C 34.734375 -3.132812 32.066406 -1.066406 28.203125 -0.796875 L 26 -0.40625 C 23.0625 0.257812 21.128906 -0.203125 20.203125 -1.796875 L 18.203125 -5.203125 C 17.671875 -8.128906 17.132812 -9.796875 16.59375 -10.203125 C 16.332031 -12.066406 15.664062 -14 14.59375 -16 L 13.59375 -20.796875 C 13.59375 -21.203125 13.460938 -21.800781 13.203125 -22.59375 L 13.203125 -26.203125 C 12.796875 -27.265625 12.457031 -29.425781 12.1875 -32.6875 C 11.925781 -35.957031 11.863281 -38.59375 12 -40.59375 C 11.46875 -42.195312 11.332031 -44.195312 11.59375 -46.59375 L 11.59375 -50.203125 C 10.925781 -53.265625 10.59375 -57.929688 10.59375 -64.203125 L 10.59375 -67 C 11.257812 -71 11.59375 -73.695312 11.59375 -75.09375 C 11.59375 -76.5 11.925781 -77.566406 12.59375 -78.296875 C 13.257812 -79.035156 15.394531 -80.46875 19 -82.59375 Z M 19 -82.59375 "/></g></g></g><g fill="#ffffff" fill-opacity="1"><g transform="translate(425.67805, 185.999988)"><g><path d="M 45.59375 -59 C 44.664062 -64.332031 42.066406 -66.800781 37.796875 -66.40625 C 35.398438 -66.269531 33.332031 -64.664062 31.59375 -61.59375 C 29.195312 -56.925781 28.164062 -50.894531 28.5 -43.5 C 28.832031 -36.101562 29.363281 -30.769531 30.09375 -27.5 C 30.832031 -24.226562 32.132812 -21.394531 34 -19 C 35.0625 -17.132812 36.660156 -16.269531 38.796875 -16.40625 C 42.535156 -16.40625 45.269531 -19.535156 47 -25.796875 L 48.59375 -30.59375 C 49.257812 -31.257812 49.394531 -31.925781 49 -32.59375 C 50.332031 -35.925781 51.066406 -39.863281 51.203125 -44.40625 C 49.867188 -45.332031 49.066406 -46.195312 48.796875 -47 C 47.992188 -49.269531 47.59375 -50.800781 47.59375 -51.59375 C 46.664062 -52.257812 46.132812 -53.523438 46 -55.390625 C 45.863281 -57.265625 45.726562 -58.46875 45.59375 -59 Z M 9 -40.203125 L 9.796875 -50.40625 C 10.734375 -59.601562 13.535156 -67.46875 18.203125 -74 C 22.734375 -79.46875 29.132812 -82.269531 37.40625 -82.40625 L 38.59375 -82.40625 C 46.332031 -82.40625 51.9375 -80.738281 55.40625 -77.40625 C 59.132812 -74.46875 61.898438 -71.265625 63.703125 -67.796875 C 65.503906 -64.328125 66.671875 -61.789062 67.203125 -60.1875 C 67.734375 -58.59375 68.066406 -56.265625 68.203125 -53.203125 C 68.460938 -47.460938 67.328125 -44.195312 64.796875 -43.40625 C 66.660156 -30.738281 65.53125 -20.671875 61.40625 -13.203125 C 60.070312 -10.128906 58.132812 -6.796875 55.59375 -3.203125 C 53.726562 -0.796875 50.394531 0.535156 45.59375 0.796875 C 40.800781 0.796875 36.632812 0.53125 33.09375 0 C 29.5625 -0.53125 25.660156 -2.226562 21.390625 -5.09375 C 17.128906 -7.96875 14.132812 -12.671875 12.40625 -19.203125 C 10.53125 -25.460938 9.394531 -32.460938 9 -40.203125 Z M 9 -40.203125 "/></g></g></g><g fill="#ffffff" fill-opacity="1"><g transform="translate(486.675468, 185.999988)"><g><path d="M 49.59375 -50.796875 L 49.203125 -53.796875 C 48.796875 -54.328125 48.554688 -55.023438 48.484375 -55.890625 C 48.421875 -56.765625 48.191406 -58.132812 47.796875 -60 C 47.796875 -62.394531 47.195312 -64.53125 46 -66.40625 C 45.59375 -67.46875 43.992188 -67.800781 41.203125 -67.40625 C 39.328125 -65.53125 37.125 -60.257812 34.59375 -51.59375 C 34.59375 -51.46875 34.394531 -50.9375 34 -50 C 33.46875 -48.800781 32.929688 -46.832031 32.390625 -44.09375 C 31.859375 -41.363281 31.523438 -39.800781 31.390625 -39.40625 C 31.128906 -38.601562 31 -37.867188 31 -37.203125 C 30.726562 -36.671875 30.59375 -35.800781 30.59375 -34.59375 L 29.796875 -30.796875 C 29.265625 -29.992188 29.128906 -28.992188 29.390625 -27.796875 L 29.390625 -25 C 29.523438 -24.601562 29.460938 -23.46875 29.203125 -21.59375 L 29.203125 -18.796875 L 29.59375 -12 C 29.59375 -10.394531 30.925781 -7.796875 33.59375 -4.203125 C 34.664062 -3.929688 35.332031 -4 35.59375 -4.40625 C 38.257812 -7.070312 39.726562 -9.800781 40 -12.59375 L 40.59375 -15.203125 C 41.257812 -15.867188 41.796875 -17.867188 42.203125 -21.203125 L 43.203125 -24.59375 C 43.203125 -25.800781 43.46875 -27.070312 44 -28.40625 C 44.53125 -29.738281 44.863281 -30.738281 45 -31.40625 C 45 -32.46875 45.863281 -35.132812 47.59375 -39.40625 C 47.457031 -39.800781 47.390625 -40.195312 47.390625 -40.59375 L 47.390625 -42 C 48.859375 -47.726562 49.59375 -50.660156 49.59375 -50.796875 Z M 75 -115.40625 C 75 -110.738281 74.734375 -107.867188 74.203125 -106.796875 L 72.796875 -93.796875 L 72.796875 -87 C 72.660156 -84.726562 72.59375 -81.328125 72.59375 -76.796875 C 72.59375 -72.265625 72.691406 -68.5 72.890625 -65.5 C 73.097656 -62.5 72.929688 -60 72.390625 -58 C 72.660156 -57.726562 72.796875 -57.257812 72.796875 -56.59375 L 73 -55 L 72.796875 -50.40625 L 72.796875 -42 C 72.929688 -40.53125 73 -38 73 -34.40625 C 73.257812 -31.332031 73.390625 -28.863281 73.390625 -27 C 73.390625 -25.132812 73.59375 -23.269531 74 -21.40625 L 74 -18.796875 L 74.796875 -10.59375 L 74.796875 -3.796875 C 75.066406 -2.867188 75.203125 -1.96875 75.203125 -1.09375 C 75.203125 -0.226562 75.5 1.234375 76.09375 3.296875 C 76.695312 5.367188 76.929688 7.269531 76.796875 9 C 73.066406 13.394531 68.332031 14.460938 62.59375 12.203125 C 61.394531 12.066406 60.160156 11.398438 58.890625 10.203125 C 57.628906 9.003906 56.863281 7.800781 56.59375 6.59375 L 56.390625 2.59375 C 55.722656 2.46875 55.328125 1.335938 55.203125 -0.796875 C 54.660156 -1.597656 54.457031 -2.265625 54.59375 -2.796875 C 55 -3.460938 54.664062 -4.597656 53.59375 -6.203125 L 51.390625 -2.40625 C 50.722656 -1.332031 49.992188 -0.664062 49.203125 -0.40625 L 48.390625 2 C 46.523438 4 45.128906 5.664062 44.203125 7 L 41.796875 9.40625 C 38.597656 10.070312 34.195312 9.800781 28.59375 8.59375 C 27.257812 8.59375 26.191406 8.460938 25.390625 8.203125 L 24 8.203125 C 23.726562 8.460938 22.257812 7.863281 19.59375 6.40625 C 17.332031 5.46875 16.132812 4.597656 16 3.796875 L 17.203125 4 C 15.328125 3.195312 14.660156 1.929688 15.203125 0.203125 C 13.597656 -0.460938 12.597656 -1.929688 12.203125 -4.203125 L 10.390625 -11 C 10.128906 -12.726562 10.195312 -14.59375 10.59375 -16.59375 C 10.332031 -17.132812 10.664062 -18.9375 11.59375 -22 L 11 -23.796875 L 10.59375 -27.40625 C 10.195312 -27.9375 10.265625 -29.132812 10.796875 -31 L 9.59375 -33 C 9.59375 -38.332031 9.796875 -41.597656 10.203125 -42.796875 L 10.390625 -45.40625 C 9.722656 -46.46875 9.925781 -48.734375 11 -52.203125 L 13.796875 -61.40625 C 13.796875 -61.664062 13.992188 -62.863281 14.390625 -65 C 15.054688 -68.332031 15.859375 -70.46875 16.796875 -71.40625 L 20.390625 -77.40625 C 21.054688 -78.070312 21.789062 -79.070312 22.59375 -80.40625 C 23.925781 -82.800781 26.726562 -84 31 -84 C 35.394531 -84.664062 42.460938 -84.132812 52.203125 -82.40625 L 52.203125 -89.40625 L 51.59375 -97.796875 C 51.59375 -101.796875 51.492188 -105.460938 51.296875 -108.796875 C 51.097656 -112.128906 51.128906 -114.796875 51.390625 -116.796875 C 51.523438 -116.929688 52.191406 -119.664062 53.390625 -125 C 54.597656 -130.332031 56.597656 -134.332031 59.390625 -137 C 60.328125 -137.53125 62.03125 -137.863281 64.5 -138 C 66.96875 -138.132812 68.46875 -138 69 -137.59375 C 69.53125 -137.195312 70.265625 -136.863281 71.203125 -136.59375 C 74.929688 -135.53125 76.796875 -132.132812 76.796875 -126.40625 Z M 75 -115.40625 "/></g></g></g><g fill="#ffffff" fill-opacity="1"><g transform="translate(558.272494, 185.999988)"><g><path d="M 54.203125 -62.796875 L 53.59375 -63 C 53.863281 -62.863281 54.066406 -62.796875 54.203125 -62.796875 Z M 29 -11.59375 L 29 -9.796875 C 32.0625 -5.660156 33.660156 -3.59375 33.796875 -3.59375 C 34.460938 -3.59375 35.992188 -3.992188 38.390625 -4.796875 C 38.523438 -4.796875 39.222656 -5.425781 40.484375 -6.6875 C 41.753906 -7.957031 42.660156 -8.796875 43.203125 -9.203125 C 44.796875 -10.128906 45.859375 -10.726562 46.390625 -11 C 46.390625 -12.0625 46.859375 -13.160156 47.796875 -14.296875 C 48.734375 -15.429688 49.566406 -16.566406 50.296875 -17.703125 C 51.023438 -18.835938 51.523438 -19.671875 51.796875 -20.203125 C 52.597656 -21.265625 52.863281 -21.796875 52.59375 -21.796875 C 52.863281 -22.328125 53.265625 -23.460938 53.796875 -25.203125 L 55.796875 -29.796875 L 58 -39.796875 C 58.257812 -40.734375 57.925781 -43.664062 57 -48.59375 L 57 -50.40625 C 56.726562 -50.800781 56.59375 -51.195312 56.59375 -51.59375 L 56.59375 -51.796875 L 56.390625 -53.796875 C 56.390625 -54.460938 56.191406 -55.597656 55.796875 -57.203125 C 55.523438 -58.398438 54.722656 -60.332031 53.390625 -63 L 51.203125 -63 C 48.796875 -61.800781 46.992188 -60.535156 45.796875 -59.203125 C 44.328125 -57.335938 42.457031 -54.003906 40.1875 -49.203125 C 37.925781 -44.398438 36.394531 -40.066406 35.59375 -36.203125 L 34.390625 -31.40625 C 32.660156 -27.800781 31.53125 -23.664062 31 -19 L 30 -16.203125 Z M 74.59375 -69 C 77.257812 -63.269531 78.59375 -58.46875 78.59375 -54.59375 C 78.59375 -46.863281 77.925781 -41 76.59375 -37 C 76.59375 -35.53125 76.460938 -34.394531 76.203125 -33.59375 C 74.992188 -24.800781 73.457031 -18.269531 71.59375 -14 C 70.925781 -13.0625 70.191406 -11.59375 69.390625 -9.59375 C 68.597656 -7.332031 66.597656 -4.734375 63.390625 -1.796875 C 63.390625 -1.398438 62.390625 -0.171875 60.390625 1.890625 C 58.390625 3.960938 55.257812 5.664062 51 7 C 46.0625 8.601562 42.859375 9.40625 41.390625 9.40625 C 33.796875 10.601562 28.265625 9.46875 24.796875 6 L 24.59375 6.203125 C 21.925781 10.867188 18.726562 12.269531 15 10.40625 C 12.726562 9.195312 11.425781 8.394531 11.09375 8 C 10.757812 7.601562 10.523438 6.738281 10.390625 5.40625 C 9.460938 3 9.128906 0.195312 9.390625 -3 L 10.390625 -9.59375 C 9.992188 -11.863281 9.929688 -13.863281 10.203125 -15.59375 L 10.203125 -17 C 10.460938 -19.664062 10.660156 -24.765625 10.796875 -32.296875 C 10.929688 -39.828125 11.164062 -44.425781 11.5 -46.09375 C 11.832031 -47.757812 12 -49.328125 12 -50.796875 C 13.59375 -69.066406 14.488281 -78.832031 14.6875 -80.09375 C 14.894531 -81.363281 15 -85.664062 15 -93 L 15 -104 C 15 -106.132812 14.960938 -107.734375 14.890625 -108.796875 C 14.828125 -109.867188 15.0625 -110.601562 15.59375 -111 C 14.53125 -114.0625 14.332031 -117.53125 15 -121.40625 L 15 -123.796875 C 14.726562 -126.328125 15.257812 -128.726562 16.59375 -131 C 17.53125 -132.195312 19.394531 -133.328125 22.1875 -134.390625 C 24.988281 -135.460938 27.328125 -136.066406 29.203125 -136.203125 L 30.203125 -136.203125 C 31.929688 -136.203125 33.460938 -135.734375 34.796875 -134.796875 C 36.398438 -134.128906 37.203125 -132.53125 37.203125 -130 C 37.460938 -129.195312 37.460938 -128.332031 37.203125 -127.40625 C 37.328125 -126.46875 36.691406 -117.03125 35.296875 -99.09375 C 33.898438 -81.164062 33.203125 -71.367188 33.203125 -69.703125 C 33.203125 -68.035156 33.164062 -66.96875 33.09375 -66.5 C 33.03125 -66.03125 33 -65.726562 33 -65.59375 C 33.664062 -65.863281 34.0625 -66.332031 34.1875 -67 C 34.320312 -67.664062 34.59375 -68.132812 35 -68.40625 C 37.257812 -70 38.390625 -71.128906 38.390625 -71.796875 C 38.390625 -71.929688 38.722656 -72.265625 39.390625 -72.796875 C 40.054688 -73.328125 40.457031 -73.59375 40.59375 -73.59375 C 40.863281 -74 41.332031 -74.269531 42 -74.40625 L 45.59375 -76.203125 C 45.726562 -77.003906 47.660156 -77.367188 51.390625 -77.296875 C 55.128906 -77.234375 57.398438 -76.9375 58.203125 -76.40625 C 59.535156 -75.738281 60.429688 -75.300781 60.890625 -75.09375 C 61.359375 -74.894531 61.828125 -74.757812 62.296875 -74.6875 C 62.765625 -74.625 64.597656 -74.0625 67.796875 -73 C 69.265625 -73 70 -72.800781 70 -72.40625 C 70.53125 -72.132812 70.929688 -72 71.203125 -72 C 73.460938 -70.664062 74.59375 -69.664062 74.59375 -69 Z M 74.59375 -69 "/></g></g></g><g fill="#ffffff" fill-opacity="1"><g transform="translate(629.069533, 185.999988)"><g><path d="M 73.203125 -55.40625 L 73.40625 -51.59375 C 73.40625 -51.195312 73.800781 -47 74.59375 -39 L 74.59375 -36.59375 C 74.59375 -33.394531 75.128906 -28.597656 76.203125 -22.203125 C 76.203125 -19.398438 77.601562 -14.53125 80.40625 -7.59375 C 81.070312 -7.195312 81.535156 -6.265625 81.796875 -4.796875 L 81.59375 -2.796875 C 81.863281 -2.128906 81.53125 -1.394531 80.59375 -0.59375 C 80.59375 0.332031 79.328125 0.796875 76.796875 0.796875 C 74.265625 0.796875 72.664062 0.925781 72 1.1875 C 71.332031 1.457031 70.265625 1.328125 68.796875 0.796875 C 68.265625 1.066406 66.664062 0.535156 64 -0.796875 C 62.800781 -1.066406 61.867188 -2.269531 61.203125 -4.40625 L 59.59375 -8.203125 C 59.59375 -10.597656 58.925781 -12.726562 57.59375 -14.59375 C 57.59375 -15.257812 57.289062 -16.457031 56.6875 -18.1875 C 56.09375 -19.925781 55.664062 -20.863281 55.40625 -21 C 54.070312 -15.664062 52.40625 -11.53125 50.40625 -8.59375 C 50.40625 -7.925781 50.003906 -7.128906 49.203125 -6.203125 L 47.203125 -2.40625 C 47.203125 -2.132812 46.601562 -1.398438 45.40625 -0.203125 C 44.601562 1.535156 42.800781 2.40625 40 2.40625 C 37.46875 2.40625 34.398438 1.738281 30.796875 0.40625 C 29.867188 0.269531 28.003906 -0.332031 25.203125 -1.40625 C 24.398438 -1.269531 23.164062 -1.5 21.5 -2.09375 C 19.832031 -2.695312 18.863281 -3 18.59375 -3 C 18.195312 -3.394531 17.265625 -4.0625 15.796875 -5 L 12.40625 -8.59375 C 12.269531 -8.726562 12.035156 -9.363281 11.703125 -10.5 C 11.367188 -11.632812 11.265625 -12.429688 11.390625 -12.890625 C 11.523438 -13.359375 11.523438 -14.0625 11.390625 -15 C 11.265625 -15.9375 11.332031 -16.867188 11.59375 -17.796875 C 11.59375 -20.460938 11.863281 -23.394531 12.40625 -26.59375 C 12.269531 -27 12.203125 -27.46875 12.203125 -28 C 12.203125 -28.53125 12.46875 -29.53125 13 -31 C 12.863281 -31.664062 12.796875 -32.132812 12.796875 -32.40625 L 13.796875 -40.203125 C 13.796875 -42.066406 13.863281 -43.398438 14 -44.203125 L 14 -47.203125 C 14.132812 -47.734375 14.203125 -48.46875 14.203125 -49.40625 L 15.203125 -59 C 15.203125 -60.46875 15.269531 -61.398438 15.40625 -61.796875 L 15.40625 -63.796875 C 15.664062 -64.066406 15.796875 -65.132812 15.796875 -67 L 17.59375 -72.59375 L 19 -75 C 19.132812 -75.53125 19.867188 -76.128906 21.203125 -76.796875 C 23.335938 -78.128906 26.40625 -78.796875 30.40625 -78.796875 C 32 -78.535156 33.726562 -77.867188 35.59375 -76.796875 C 36 -76.929688 36.9375 -76.664062 38.40625 -76 C 41.070312 -74.800781 41.203125 -71.398438 38.796875 -65.796875 C 38.265625 -62.203125 38 -60.335938 38 -60.203125 C 37.46875 -59.128906 37.203125 -58.257812 37.203125 -57.59375 C 36.398438 -53.332031 36 -51.066406 36 -50.796875 C 36.53125 -51.328125 36.332031 -50.53125 35.40625 -48.40625 L 34.59375 -41 C 33.664062 -37.800781 33.269531 -34.269531 33.40625 -30.40625 L 32.59375 -27.796875 C 32.726562 -27.128906 32.664062 -25.0625 32.40625 -21.59375 C 32.664062 -21.195312 32.796875 -20.734375 32.796875 -20.203125 L 33 -18.59375 C 32.863281 -18.195312 32.925781 -17.832031 33.1875 -17.5 C 33.457031 -17.164062 34.226562 -17.03125 35.5 -17.09375 C 36.769531 -17.164062 37.867188 -17.46875 38.796875 -18 C 40.660156 -20.269531 41.925781 -22.632812 42.59375 -25.09375 C 43.257812 -27.5625 43.59375 -29 43.59375 -29.40625 C 45.863281 -35.132812 47.265625 -38.46875 47.796875 -39.40625 C 48.460938 -43 49.597656 -47.128906 51.203125 -51.796875 C 50.929688 -52.460938 50.929688 -53.796875 51.203125 -55.796875 L 53.796875 -66.40625 C 54.992188 -68.40625 55.59375 -69.632812 55.59375 -70.09375 C 55.59375 -70.5625 56.394531 -72.394531 58 -75.59375 C 58 -76.132812 58.398438 -77.203125 59.203125 -78.796875 C 60.128906 -80.265625 61.796875 -81.664062 64.203125 -83 L 64.796875 -83 C 67.734375 -83.269531 70.269531 -82.867188 72.40625 -81.796875 C 72.664062 -81.265625 72.796875 -80.332031 72.796875 -79 C 73.066406 -77.664062 73.332031 -75.265625 73.59375 -71.796875 L 73.59375 -69.796875 L 72.796875 -65.40625 C 73.867188 -62.070312 74.003906 -58.738281 73.203125 -55.40625 Z M 73.203125 -55.40625 "/></g></g></g><g fill="#ffffff" fill-opacity="1"><g transform="translate(701.266551, 185.999988)"><g><path d="M 15.59375 -77.59375 C 19.195312 -82 24.132812 -84.332031 30.40625 -84.59375 C 40.664062 -85 48.296875 -82.46875 53.296875 -77 C 58.296875 -71.53125 60.960938 -66.128906 61.296875 -60.796875 C 61.628906 -55.460938 60.265625 -52.597656 57.203125 -52.203125 C 52.796875 -52.066406 49.925781 -52.664062 48.59375 -54 C 47.394531 -53.863281 45.863281 -54.726562 44 -56.59375 C 43.195312 -57 42.128906 -58.535156 40.796875 -61.203125 L 38.59375 -66.203125 C 37.53125 -68.597656 36.195312 -69.929688 34.59375 -70.203125 C 32.59375 -69.398438 31.59375 -67.398438 31.59375 -64.203125 C 32.132812 -57.929688 35.132812 -51.929688 40.59375 -46.203125 C 40.59375 -46.203125 40.691406 -46.035156 40.890625 -45.703125 C 41.097656 -45.367188 42.066406 -44.269531 43.796875 -42.40625 C 54.328125 -30.800781 59.796875 -21.46875 60.203125 -14.40625 C 60.203125 -9.863281 59.269531 -6.863281 57.40625 -5.40625 C 51.664062 1.394531 44.195312 4.925781 35 5.1875 C 25.800781 5.457031 18.203125 2.59375 12.203125 -3.40625 C 10.597656 -5 9.796875 -6.53125 9.796875 -8 C 8.992188 -10.53125 8.726562 -12.195312 9 -13 C 8.601562 -16.726562 8.601562 -19.53125 9 -21.40625 C 9.800781 -25.664062 12.9375 -27.863281 18.40625 -28 C 20.40625 -28 21.671875 -26.800781 22.203125 -24.40625 C 23.929688 -17.601562 25.5625 -13.132812 27.09375 -11 C 28.632812 -8.863281 31.132812 -7.863281 34.59375 -8 C 39 -8.269531 41.097656 -10.738281 40.890625 -15.40625 C 40.691406 -20.070312 38.460938 -24.40625 34.203125 -28.40625 C 32.867188 -30 31.566406 -31.226562 30.296875 -32.09375 C 29.035156 -32.96875 28.203125 -33.601562 27.796875 -34 C 27.660156 -34.394531 27.328125 -34.796875 26.796875 -35.203125 C 24.128906 -37.335938 20.757812 -40.867188 16.6875 -45.796875 C 12.625 -50.734375 10.460938 -55.332031 10.203125 -59.59375 C 9.671875 -67.195312 11.46875 -73.195312 15.59375 -77.59375 Z M 15.59375 -77.59375 "/></g></g></g></svg>